<svg width="81" height="63" viewBox="0 0 81 63" fill="none" xmlns="http://www.w3.org/2000/svg">
<path d="M10.8675 0H3.0701C1.41324 0 0.0700953 1.34315 0.0700953 3V48.934C0.0700953 49.0687 0.0615654 49.1969 0.0491246 49.3309C-0.106812 51.0113 -0.708631 63 13.8675 63H44.0013C45.6581 63 47 61.6569 47 60V30.9162C47 29.2593 45.6568 27.9162 44 27.9162H36.1087C34.4519 27.9162 33.1087 29.2593 33.1087 30.9162V46.1362C33.1087 47.7931 31.7656 49.1362 30.1088 49.1362H16.8675C15.2106 49.1362 13.8675 47.7931 13.8675 46.1362V3C13.8675 1.34315 12.5243 0 10.8675 0Z" fill="#428597"/>
<path fill-rule="evenodd" clip-rule="evenodd" d="M33.0716 3C33.0716 1.34315 34.4147 0 36.0716 0L44.1625 0C45.8194 0 47.1625 1.34315 47.1625 3L47.1625 46.1362C47.1625 47.7931 48.5057 49.1362 50.1625 49.1362L63.8132 49.1362C65.47 49.1362 66.8132 47.7931 66.8132 46.1362V44.4878C66.8132 42.831 65.47 41.4878 63.8132 41.4878H59.8537C58.1968 41.4878 56.8537 40.1447 56.8537 38.4878L56.8537 30.6585C56.8537 29.0017 58.1968 27.6585 59.8537 27.6585L79.7737 27.6585C79.8448 27.6585 79.9025 27.7162 79.9025 27.7874C79.9025 27.8585 79.9601 27.9162 80.0313 27.9162H80.4512C80.7543 27.9162 81 28.1619 81 28.4649V60C81 61.6569 79.6569 63 78 63L47.1625 63C32.2875 63 32.89 51.0294 33.0498 49.3348C33.0627 49.1979 33.0716 49.0672 33.0716 48.9298L33.0716 3Z" fill="#428597"/>
</svg>
