<svg width="49" height="49" viewBox="0 0 49 49" fill="none" xmlns="http://www.w3.org/2000/svg">
<path d="M24.5 49C10.9657 49 1.42553e-06 38.0343 2.42328e-07 24.5C-9.40876e-07 10.9657 10.9657 -1.68173e-06 24.5 -2.86493e-06C38.0343 -4.04814e-06 49 10.9657 49 24.5C49 38.0343 38.0343 49 24.5 49ZM27.355 34.8137L19.8964 27.6613L37.9355 27.6613C39.2494 27.6613 40.3065 26.6042 40.3064 25.2903L40.3064 23.7097C40.3064 22.3958 39.2494 21.3387 37.9355 21.3387L19.8964 21.3387L27.355 14.1863C28.3133 13.2675 28.3331 11.7363 27.3946 10.7978L26.3079 9.72097C25.3792 8.79234 23.8776 8.79234 22.9589 9.72097L9.8494 22.8206C8.92077 23.7492 8.92077 25.2508 9.8494 26.1696L22.9589 39.2889C23.8875 40.2175 25.3891 40.2175 26.3079 39.2889L27.3946 38.2121C28.3331 37.2637 28.3133 35.7325 27.355 34.8137Z" fill="#F2F7F8"/>
</svg>
